<svg id="Capa_1" data-name="Capa 1" xmlns="http://www.w3.org/2000/svg" viewBox="0 0 512 499.47"><defs><style>.cls-1{fill:#070303;}</style></defs><title>github</title><path class="cls-1" d="M477.66,133.76A255,255,0,0,0,384.49,40.6Q325.66,6.27,256,6.26T127.5,40.6a255,255,0,0,0-93.17,93.16Q0,192.59,0,262.25q0,83.67,48.83,150.5T175,505.24q9,1.68,13.34-2.33a13,13,0,0,0,4.33-10q0-1-.17-18t-.17-29.66l-7.66,1.32a97.22,97.22,0,0,1-18.5,1.17A140.49,140.49,0,0,1,143,445.42a51.82,51.82,0,0,1-22.33-10A42.32,42.32,0,0,1,106,414.93l-3.33-7.67a83.14,83.14,0,0,0-10.5-17Q85,380.93,77.66,377.6l-2.33-1.67a24,24,0,0,1-4.33-4,18,18,0,0,1-3-4.66q-1-2.34,1.66-3.84c1.78-1,5-1.49,9.67-1.49l6.66,1q6.67,1.33,16.5,8a53.67,53.67,0,0,1,16.17,17.33q7.66,13.67,18.5,20.83T159,416.25a95.26,95.26,0,0,0,19-1.66,65.8,65.8,0,0,0,15-5q3-22.33,16.33-34.33a228.9,228.9,0,0,1-34.17-6,135.89,135.89,0,0,1-31.32-13A89.63,89.63,0,0,1,117,333.91q-10.67-13.34-17.5-35t-6.83-50q0-40.33,26.34-68.66-12.34-30.33,2.33-68,9.66-3,28.66,4.5t27.84,12.84q8.83,5.32,14.16,9a240.86,240.86,0,0,1,128,0l12.66-8a178.78,178.78,0,0,1,30.67-14.67q17.66-6.66,27-3.67,15,37.68,2.66,68,26.34,28.33,26.34,68.67,0,28.32-6.83,50.16t-17.66,35a93.35,93.35,0,0,1-27,22.17,136.41,136.41,0,0,1-31.34,13,227.48,227.48,0,0,1-34.16,6q17.32,15,17.32,47.33v70.33a13.3,13.3,0,0,0,4.17,10q4.17,4,13.17,2.32,77.34-25.65,126.17-92.49T512,262.24Q512,192.6,477.66,133.76Z" transform="translate(0 -6.26)"/></svg>